<svg xmlns="http://www.w3.org/2000/svg" xmlns:xlink="http://www.w3.org/1999/xlink" width="529" zoomAndPan="magnify" viewBox="0 0 396.75 396.749985" height="529" preserveAspectRatio="xMidYMid meet" version="1.0"><defs><clipPath id="a877c24d61"><path d="M 138.742188 76.597656 L 261.328125 76.597656 L 261.328125 228.875 L 138.742188 228.875 Z M 138.742188 76.597656 " clip-rule="nonzero"/></clipPath><clipPath id="292a321736"><path d="M 200.035156 76.597656 C 166.183594 76.597656 138.742188 110.589844 138.742188 152.523438 C 138.742188 194.453125 166.183594 228.445312 200.035156 228.445312 C 233.886719 228.445312 261.328125 194.453125 261.328125 152.523438 C 261.328125 110.589844 233.886719 76.597656 200.035156 76.597656 Z M 200.035156 76.597656 " clip-rule="nonzero"/></clipPath><clipPath id="3747d66031"><path d="M 233.859375 87.863281 L 249.582031 87.863281 L 249.582031 107.460938 L 233.859375 107.460938 Z M 233.859375 87.863281 " clip-rule="nonzero"/></clipPath><clipPath id="c1edbc4755"><path d="M 236.523438 88.265625 C 245.109375 96.855469 249.175781 102.878906 249.476562 105.289062 C 249.476562 106.195312 249.175781 107.097656 248.875 107.25 C 248.421875 107.550781 247.371094 107.398438 247.066406 106.945312 C 246.765625 106.644531 246.765625 105.140625 247.21875 104.835938 C 247.519531 104.535156 249.027344 104.6875 249.328125 105.140625 C 249.628906 105.441406 249.628906 106.496094 249.328125 106.945312 C 249.027344 107.25 247.972656 107.550781 247.066406 107.097656 C 245.109375 106.195312 242.699219 98.660156 240.136719 95.5 C 238.179688 93.085938 234.414062 91.28125 233.960938 89.773438 C 233.8125 89.171875 234.113281 88.117188 234.566406 87.964844 C 234.867188 87.664062 236.523438 88.265625 236.523438 88.265625 " clip-rule="nonzero"/></clipPath><clipPath id="8e9470e2bd"><path d="M 231.199219 84.449219 L 249.953125 84.449219 L 249.953125 107.503906 L 231.199219 107.503906 Z M 231.199219 84.449219 " clip-rule="nonzero"/></clipPath><clipPath id="595ad1e51f"><path d="M 246.617188 106.042969 C 243.90625 93.238281 233.207031 89.472656 231.703125 87.210938 C 231.25 86.308594 231.25 85.40625 231.550781 84.953125 C 231.851562 84.652344 233.359375 84.5 233.660156 84.800781 C 234.113281 85.253906 233.660156 87.0625 233.359375 87.363281 C 232.90625 87.515625 231.25 86.460938 231.25 86.007812 C 231.101562 85.554688 232.15625 84.5 233.207031 84.5 C 235.769531 84.5 245.410156 90.675781 247.972656 94.746094 C 249.929688 98.058594 250.230469 104.085938 249.628906 106.042969 C 249.328125 106.796875 248.726562 107.398438 248.273438 107.398438 C 247.820312 107.550781 246.617188 106.042969 246.617188 106.042969 " clip-rule="nonzero"/></clipPath><clipPath id="d69ca63b00"><path d="M 231.34375 84.140625 L 258.574219 84.140625 L 258.574219 126.980469 L 231.34375 126.980469 Z M 231.34375 84.140625 " clip-rule="nonzero"/></clipPath><clipPath id="d49c61852c"><path d="M 232.605469 84.199219 C 241.945312 88.265625 244.65625 94.140625 247.671875 99.414062 C 251.4375 106.496094 258.816406 120.957031 258.515625 124.722656 C 258.515625 125.777344 257.761719 126.832031 257.160156 126.832031 C 256.710938 126.832031 255.503906 125.175781 255.804688 124.875 C 255.957031 124.421875 258.214844 124.269531 258.515625 124.570312 C 258.667969 124.875 258.367188 126.378906 257.914062 126.679688 C 257.460938 126.832031 256.558594 126.679688 255.804688 125.925781 C 253.09375 123.515625 248.574219 107.699219 244.957031 100.921875 C 242.546875 96.25 240.289062 91.429688 237.578125 89.019531 C 235.621094 87.515625 231.851562 87.664062 231.402344 86.609375 C 231.25 86.007812 232.605469 84.199219 232.605469 84.199219 " clip-rule="nonzero"/></clipPath><clipPath id="c1a0e817f6"><path d="M 224.261719 84.300781 L 253.929688 84.300781 L 253.929688 122.996094 L 224.261719 122.996094 Z M 224.261719 84.300781 " clip-rule="nonzero"/></clipPath><clipPath id="558c6194e3"><path d="M 225.828125 84.351562 C 241.796875 84.800781 244.054688 85.554688 245.710938 87.363281 C 247.671875 89.320312 248.273438 92.484375 249.328125 96.25 C 251.136719 102.425781 254.75 118.546875 253.546875 121.558594 C 253.09375 122.464844 252.339844 122.914062 251.738281 122.914062 C 251.285156 122.914062 250.53125 122.160156 250.53125 121.558594 C 250.53125 121.105469 251.4375 119.902344 251.886719 119.902344 C 252.339844 119.902344 253.546875 120.957031 253.546875 121.410156 C 253.546875 121.859375 252.492188 123.066406 251.886719 122.914062 C 250.835938 122.613281 249.328125 116.738281 248.273438 112.820312 C 247.066406 107.851562 247.371094 99.566406 246.011719 95.195312 C 245.261719 92.484375 244.355469 90.074219 243 88.71875 C 241.945312 87.816406 240.890625 87.515625 239.234375 87.210938 C 236.070312 86.609375 227.484375 88.265625 225.527344 87.210938 C 224.773438 86.910156 224.320312 86.160156 224.320312 85.707031 C 224.472656 85.105469 225.828125 84.351562 225.828125 84.351562 " clip-rule="nonzero"/></clipPath><clipPath id="d106dd93d0"><path d="M 137.96875 151.957031 L 146.855469 151.957031 L 146.855469 160.199219 L 137.96875 160.199219 Z M 137.96875 151.957031 " clip-rule="nonzero"/></clipPath><clipPath id="1244956a87"><path d="M 146.4375 154.398438 C 138.457031 160.273438 138.304688 158.015625 138.605469 157.863281 C 138.90625 157.5625 141.015625 158.917969 140.867188 159.371094 C 140.867188 159.671875 138.757812 160.425781 138.304688 160.125 C 138.003906 159.820312 137.851562 159.070312 138.152344 158.316406 C 138.757812 156.660156 142.824219 152.742188 144.480469 152.140625 C 145.386719 151.839844 146.4375 151.988281 146.742188 152.441406 C 147.042969 152.742188 146.4375 154.398438 146.4375 154.398438 " clip-rule="nonzero"/></clipPath><clipPath id="1139e2b9c2"><path d="M 136 158.394531 L 141.605469 158.394531 L 141.605469 190.269531 L 136 190.269531 Z M 136 158.394531 " clip-rule="nonzero"/></clipPath><clipPath id="e5f608c622"><path d="M 140.714844 159.972656 C 139.660156 184.226562 142.070312 187.390625 141.46875 188.894531 C 141.316406 189.648438 140.261719 190.25 139.8125 190.25 C 139.359375 190.101562 138.605469 189.347656 138.457031 188.894531 C 138.457031 188.445312 139.511719 187.238281 139.960938 187.238281 C 140.414062 187.238281 141.617188 188.746094 141.46875 189.195312 C 141.316406 189.5 139.511719 189.949219 138.757812 189.5 C 137.402344 188.59375 136.648438 184.074219 136.195312 180.308594 C 135.742188 174.734375 136.347656 162.082031 137.703125 159.519531 C 138.152344 158.769531 138.90625 158.316406 139.359375 158.464844 C 139.8125 158.464844 140.714844 159.972656 140.714844 159.972656 " clip-rule="nonzero"/></clipPath><clipPath id="371ef1252b"><path d="M 135.167969 177.023438 L 149.074219 177.023438 L 149.074219 203.132812 L 135.167969 203.132812 Z M 135.167969 177.023438 " clip-rule="nonzero"/></clipPath><clipPath id="3a5a19c593"><path d="M 138.605469 178.652344 C 141.167969 191.15625 149 198.6875 149 201.25 C 149 202.152344 148.246094 202.90625 147.796875 203.054688 C 147.34375 203.207031 146.289062 202.605469 146.136719 202.152344 C 145.988281 201.699219 146.890625 200.042969 147.492188 200.042969 C 147.945312 200.042969 149.152344 201.097656 149 201.550781 C 149 202 147.492188 202.90625 146.589844 202.753906 C 144.179688 202 138.457031 192.660156 136.796875 188.144531 C 135.441406 184.679688 134.839844 179.855469 135.59375 178.199219 C 135.894531 177.445312 136.796875 176.996094 137.25 177.144531 C 137.703125 177.144531 138.605469 178.652344 138.605469 178.652344 " clip-rule="nonzero"/></clipPath><clipPath id="fd637ffaae"><path d="M 141.769531 199.742188 L 188.402344 199.742188 L 188.402344 234.808594 L 141.769531 234.808594 Z M 141.769531 199.742188 " clip-rule="nonzero"/></clipPath><clipPath id="e0399f381b"><path d="M 156.53125 204.5625 C 173.253906 218.574219 185.757812 222.1875 187.714844 225.804688 C 188.769531 227.609375 188.167969 229.871094 187.261719 231.375 C 186.207031 232.882812 183.496094 234.539062 180.9375 234.691406 C 176.71875 234.992188 169.035156 231.226562 164.515625 228.964844 C 160.902344 227.160156 158.1875 225.652344 155.328125 223.242188 C 152.011719 220.378906 148.398438 216.160156 146.136719 212.394531 C 144.179688 208.78125 141.46875 203.359375 141.921875 201.398438 C 142.070312 200.496094 142.972656 199.894531 143.425781 199.894531 C 143.878906 199.742188 144.78125 200.496094 144.933594 200.945312 C 144.933594 201.550781 144.179688 202.753906 143.726562 202.753906 C 143.277344 202.90625 141.921875 202 141.921875 201.550781 C 141.921875 201.097656 143.125 199.742188 143.726562 199.894531 C 145.386719 200.195312 147.34375 208.78125 149.601562 212.246094 C 151.410156 215.257812 153.367188 217.667969 155.929688 219.929688 C 158.492188 222.339844 161.351562 224.144531 164.816406 225.804688 C 168.886719 227.910156 175.964844 230.472656 179.128906 231.226562 C 180.636719 231.527344 181.691406 231.828125 182.59375 231.527344 C 183.648438 231.226562 184.703125 230.171875 185.003906 229.269531 C 185.304688 228.363281 185.304688 227.308594 184.550781 226.253906 C 182.59375 223.695312 172.199219 220.832031 167.226562 217.820312 C 163.160156 215.410156 158.941406 212.546875 156.683594 210.136719 C 155.175781 208.480469 153.671875 206.371094 153.671875 205.164062 C 153.820312 204.5625 154.574219 203.808594 155.027344 203.660156 C 155.476562 203.660156 156.53125 204.5625 156.53125 204.5625 " clip-rule="nonzero"/></clipPath><clipPath id="4ead0392ff"><path d="M 248.25 138 L 266.375 138 L 266.375 156.230469 L 248.25 156.230469 Z M 248.25 138 " clip-rule="nonzero"/></clipPath><clipPath id="c7415c3563"><path d="M 248.273438 147.167969 C 254.296875 138.28125 258.367188 137.828125 260.625 138.730469 C 262.886719 139.636719 265.597656 142.800781 266.046875 145.210938 C 266.652344 147.621094 265.597656 151.535156 263.789062 153.34375 C 262.132812 155.152344 258.214844 156.507812 255.804688 156.054688 C 253.394531 155.605469 250.082031 153.195312 249.027344 150.933594 C 247.972656 148.675781 248.273438 144.605469 249.476562 142.5 C 250.832031 140.390625 254.449219 138.429688 256.710938 138.128906 C 258.667969 137.828125 260.777344 138.429688 262.28125 139.636719 C 264.089844 141.140625 266.199219 144.757812 266.351562 147.167969 C 266.5 149.277344 265.296875 151.6875 264.089844 153.195312 C 262.734375 154.550781 260.476562 156.054688 258.367188 156.054688 C 255.957031 156.207031 252.191406 154.851562 250.53125 153.195312 C 249.027344 151.6875 248.273438 147.167969 248.273438 147.167969 " clip-rule="nonzero"/></clipPath><clipPath id="893c63a5b7"><path d="M 244.425781 135.667969 L 265.671875 135.667969 L 265.671875 154.996094 L 244.425781 154.996094 Z M 244.425781 135.667969 " clip-rule="nonzero"/></clipPath><clipPath id="fbdfacfed0"><path d="M 260.476562 152.589844 C 249.175781 154.097656 246.164062 151.386719 245.109375 149.277344 C 244.355469 147.621094 244.355469 145.359375 244.808594 143.554688 C 245.261719 141.746094 246.464844 139.785156 247.972656 138.730469 C 249.929688 137.527344 253.996094 136.472656 256.40625 137.375 C 258.816406 138.128906 261.53125 140.992188 262.28125 143.402344 C 262.886719 145.8125 262.132812 149.730469 260.476562 151.6875 C 258.816406 153.644531 255.050781 155.152344 252.640625 154.851562 C 250.082031 154.699219 246.765625 152.441406 245.5625 150.179688 C 244.355469 147.921875 244.355469 144.003906 245.5625 141.746094 C 246.765625 139.335938 250.230469 137.074219 252.792969 136.171875 C 255.503906 135.417969 259.121094 135.570312 261.226562 136.625 C 263.035156 137.527344 264.691406 139.636719 265.296875 141.59375 C 265.898438 143.402344 265.746094 146.113281 264.996094 147.921875 C 264.242188 149.878906 260.476562 152.589844 260.476562 152.589844 " clip-rule="nonzero"/></clipPath><clipPath id="24db8957c7"><path d="M 246.304688 130.539062 L 266.386719 130.539062 L 266.386719 158.109375 L 246.304688 158.109375 Z M 246.304688 130.539062 " clip-rule="nonzero"/></clipPath><clipPath id="d68d621f33"><path d="M 266.351562 141.894531 C 259.570312 157.714844 255.804688 158.316406 253.546875 158.015625 C 251.585938 157.714844 249.78125 156.355469 248.574219 155 C 247.371094 153.496094 246.464844 151.535156 246.464844 149.578125 C 246.617188 147.167969 248.121094 143.402344 250.082031 141.894531 C 252.039062 140.390625 256.105469 139.785156 258.367188 140.539062 C 260.777344 141.445312 263.488281 144.605469 264.242188 146.714844 C 264.84375 148.523438 264.542969 150.785156 263.941406 152.589844 C 263.1875 154.25 261.832031 156.054688 260.171875 156.960938 C 258.066406 158.015625 253.847656 158.316406 251.585938 157.261719 C 249.328125 156.207031 247.21875 153.34375 246.617188 150.480469 C 245.710938 147.015625 247.21875 140.691406 248.875 137.375 C 250.230469 134.664062 252.339844 132.105469 254.601562 131.199219 C 256.40625 130.296875 259.121094 130.597656 260.925781 131.199219 C 262.734375 131.953125 264.691406 133.761719 265.597656 135.570312 C 266.5 137.375 266.351562 141.894531 266.351562 141.894531 " clip-rule="nonzero"/></clipPath><clipPath id="d535420678"><path d="M 246.425781 140.277344 L 264.164062 140.277344 L 264.164062 158 L 246.425781 158 Z M 246.425781 140.277344 " clip-rule="nonzero"/></clipPath><clipPath id="dcdc26fc68"><path d="M 264.089844 146.414062 C 263.789062 152.890625 261.53125 156.355469 259.269531 157.410156 C 257.011719 158.464844 252.792969 157.714844 250.832031 156.808594 C 249.328125 156.207031 248.421875 155 247.820312 153.796875 C 247.066406 152.589844 246.316406 151.234375 246.464844 149.730469 C 246.617188 147.46875 247.972656 143.554688 249.929688 142.046875 C 251.886719 140.539062 256.105469 140.089844 258.214844 140.539062 C 259.722656 140.839844 261.832031 142.800781 261.832031 142.800781 " clip-rule="nonzero"/></clipPath><clipPath id="dc6314e87c"><path d="M 246.5625 138.828125 L 264.597656 138.828125 L 264.597656 156.980469 L 246.5625 156.980469 Z M 246.5625 138.828125 " clip-rule="nonzero"/></clipPath><clipPath id="ed16e4901d"><path d="M 261.980469 141.59375 C 263.941406 152.140625 261.53125 155.304688 259.121094 156.355469 C 256.859375 157.261719 252.792969 156.960938 250.683594 155.605469 C 248.574219 154.25 246.617188 150.785156 246.617188 148.222656 C 246.464844 145.8125 248.273438 142.046875 250.382812 140.691406 C 252.339844 139.183594 256.40625 138.582031 258.667969 139.484375 C 261.078125 140.390625 263.789062 143.402344 264.390625 145.8125 C 264.996094 148.222656 263.789062 152.140625 262.28125 154.097656 C 261.226562 155.605469 259.269531 156.660156 257.3125 156.808594 C 254.902344 157.109375 250.984375 156.207031 249.175781 154.398438 C 247.371094 152.589844 246.464844 148.675781 246.617188 146.414062 C 246.917969 144.304688 248.421875 142.046875 249.929688 140.839844 C 251.585938 139.636719 253.996094 138.882812 256.105469 138.882812 C 258.066406 139.035156 261.980469 141.59375 261.980469 141.59375 " clip-rule="nonzero"/></clipPath><clipPath id="63ed9895c3"><path d="M 244.578125 137.429688 L 267.351562 137.429688 L 267.351562 173.949219 L 244.578125 173.949219 Z M 244.578125 137.429688 " clip-rule="nonzero"/></clipPath><clipPath id="d46adc96a3"><path d="M 265.296875 148.523438 C 261.679688 169.765625 260.324219 171.421875 258.816406 172.476562 C 257.613281 173.378906 256.257812 173.832031 254.75 173.832031 C 252.792969 173.980469 250.082031 173.53125 248.574219 172.175781 C 246.765625 170.519531 245.261719 167.804688 244.808594 164.492188 C 244.355469 159.671875 247.671875 149.277344 249.328125 144.910156 C 250.082031 142.648438 250.683594 141.140625 252.039062 139.9375 C 253.394531 138.582031 255.503906 137.679688 257.3125 137.527344 C 259.121094 137.375 261.378906 137.679688 262.886719 138.730469 C 264.84375 140.238281 267.101562 143.554688 267.253906 146.113281 C 267.253906 148.523438 265.597656 152.289062 263.636719 153.796875 C 261.53125 155.304688 257.613281 155.90625 255.203125 155 C 252.792969 154.25 250.082031 151.234375 249.476562 148.824219 C 248.726562 146.414062 249.929688 142.5 251.285156 140.539062 C 252.492188 139.035156 254.449219 137.980469 256.257812 137.679688 C 258.066406 137.226562 260.324219 137.375 261.980469 138.28125 C 264.089844 139.484375 266.351562 141.894531 267.101562 145.058594 C 268.308594 150.480469 264.542969 164.792969 261.832031 169.3125 C 260.324219 171.570312 258.816406 172.777344 256.859375 173.378906 C 254.601562 173.980469 250.53125 173.53125 248.574219 172.175781 C 246.464844 170.667969 245.261719 167.804688 244.808594 164.492188 C 244.207031 159.371094 246.464844 147.320312 248.421875 143.554688 C 249.175781 141.894531 250.082031 141.140625 251.4375 140.539062 C 253.09375 139.636719 255.65625 138.882812 257.761719 139.183594 C 259.722656 139.484375 261.980469 140.839844 263.1875 142.5 C 264.542969 144.003906 265.296875 148.523438 265.296875 148.523438 " clip-rule="nonzero"/></clipPath><clipPath id="ffbc9d9ac2"><path d="M 249.875 142.445312 L 267.910156 142.445312 L 267.910156 160.476562 L 249.875 160.476562 Z M 249.875 142.445312 " clip-rule="nonzero"/></clipPath><clipPath id="f8e89fc203"><path d="M 265.296875 145.210938 C 267.40625 155.753906 264.84375 158.917969 262.585938 159.820312 C 260.171875 160.875 256.257812 160.574219 254.148438 159.21875 C 252.039062 157.863281 249.929688 154.25 249.929688 151.839844 C 249.929688 149.277344 251.738281 145.660156 253.695312 144.15625 C 255.65625 142.800781 259.722656 142.195312 262.132812 143.101562 C 264.390625 143.855469 267.101562 147.015625 267.707031 149.429688 C 268.308594 151.839844 267.101562 155.753906 265.746094 157.5625 C 264.542969 159.070312 262.585938 160.273438 260.625 160.425781 C 258.367188 160.726562 254.296875 159.671875 252.640625 157.863281 C 250.832031 156.207031 249.78125 152.289062 250.082031 149.878906 C 250.230469 147.921875 251.738281 145.660156 253.394531 144.457031 C 254.902344 143.25 257.460938 142.347656 259.421875 142.5 C 261.378906 142.648438 265.296875 145.058594 265.296875 145.058594 " clip-rule="nonzero"/></clipPath><clipPath id="afe308dd93"><path d="M 249.789062 145.941406 L 268.03125 145.941406 L 268.03125 164.0625 L 249.789062 164.0625 Z M 249.789062 145.941406 " clip-rule="nonzero"/></clipPath><clipPath id="4706e45428"><path d="M 258.96875 164.039062 C 250.082031 158.015625 249.628906 154.097656 250.53125 151.6875 C 251.4375 149.429688 254.601562 146.714844 257.011719 146.265625 C 259.421875 145.660156 263.335938 146.714844 265.144531 148.523438 C 266.953125 150.179688 268.308594 154.097656 267.855469 156.507812 C 267.554688 158.917969 264.996094 162.230469 262.734375 163.285156 C 260.476562 164.339844 256.40625 164.039062 254.296875 162.835938 C 252.191406 161.480469 250.230469 157.863281 249.929688 155.605469 C 249.628906 153.644531 250.230469 151.535156 251.4375 150.03125 C 252.941406 148.222656 256.558594 146.113281 258.96875 145.964844 C 261.078125 145.964844 263.488281 146.867188 264.996094 148.222656 C 266.652344 150.03125 268.15625 153.796875 268.007812 156.207031 C 267.855469 158.164062 266.5 160.425781 264.996094 161.78125 C 263.488281 163.136719 258.96875 164.039062 258.96875 164.039062 " clip-rule="nonzero"/></clipPath><clipPath id="6ba6e7f61f"><path d="M 250.148438 141.394531 L 267.859375 141.394531 L 267.859375 159.335938 L 250.148438 159.335938 Z M 250.148438 141.394531 " clip-rule="nonzero"/></clipPath><clipPath id="efad0ecd14"><path d="M 267.855469 147.46875 C 267.40625 153.945312 264.84375 157.261719 262.886719 158.464844 C 261.53125 159.21875 260.171875 159.519531 258.667969 159.21875 C 256.558594 158.769531 252.792969 156.507812 251.4375 154.851562 C 250.53125 153.644531 250.082031 152.289062 250.230469 150.785156 C 250.382812 148.523438 251.738281 144.605469 253.695312 143.101562 C 255.65625 141.59375 259.722656 141.140625 261.980469 141.59375 C 263.488281 141.894531 265.597656 143.855469 265.597656 143.855469 " clip-rule="nonzero"/></clipPath><clipPath id="50640eddc8"><path d="M 247.378906 151.816406 L 265.621094 151.816406 L 265.621094 169.9375 L 247.378906 169.9375 Z M 247.378906 151.816406 " clip-rule="nonzero"/></clipPath><clipPath id="ecb5fc62b8"><path d="M 256.558594 169.914062 C 247.671875 163.890625 247.21875 159.820312 248.121094 157.410156 C 249.027344 155.152344 252.191406 152.589844 254.601562 151.988281 C 257.011719 151.386719 260.925781 152.589844 262.734375 154.25 C 264.542969 155.90625 265.898438 159.820312 265.445312 162.230469 C 264.996094 164.792969 262.585938 167.957031 260.324219 169.011719 C 258.066406 170.066406 253.996094 169.914062 251.886719 168.558594 C 249.78125 167.355469 247.820312 163.589844 247.519531 161.328125 C 247.21875 159.371094 247.820312 157.261719 249.027344 155.753906 C 250.53125 153.945312 254.148438 151.988281 256.558594 151.839844 C 258.667969 151.6875 261.078125 152.742188 262.585938 154.097656 C 264.089844 155.453125 265.296875 157.714844 265.445312 159.671875 C 265.746094 161.78125 265.296875 164.339844 263.941406 166 C 262.585938 167.804688 256.558594 169.914062 256.558594 169.914062 " clip-rule="nonzero"/></clipPath><clipPath id="c061fc66c2"><path d="M 246.710938 137.796875 L 267.332031 137.796875 L 267.332031 165.628906 L 246.710938 165.628906 Z M 246.710938 137.796875 " clip-rule="nonzero"/></clipPath><clipPath id="cbe3074948"><path d="M 246.917969 154.851562 C 251.4375 141.140625 253.996094 138.582031 256.40625 138.128906 C 258.816406 137.679688 262.734375 138.730469 264.542969 140.539062 C 266.351562 142.347656 267.253906 146.265625 267.101562 148.675781 C 266.953125 150.480469 265.898438 152.441406 264.390625 153.644531 C 262.433594 155.152344 258.515625 156.207031 256.105469 155.753906 C 254.148438 155.453125 252.339844 154.398438 251.285156 152.742188 C 249.929688 150.785156 248.875 146.867188 249.476562 144.457031 C 250.230469 142.046875 253.246094 139.335938 255.503906 138.429688 C 257.3125 137.679688 259.570312 137.828125 261.226562 138.429688 C 262.886719 139.035156 264.691406 140.539062 265.746094 142.046875 C 266.800781 143.554688 267.253906 145.511719 267.253906 147.621094 C 267.253906 150.632812 266.199219 155.605469 264.691406 158.617188 C 263.335938 161.179688 261.679688 164.191406 259.269531 165.09375 C 257.011719 166 253.09375 165.546875 250.984375 164.339844 C 249.175781 163.285156 247.671875 160.875 247.066406 159.21875 C 246.617188 157.714844 246.917969 154.851562 246.917969 154.851562 " clip-rule="nonzero"/></clipPath><clipPath id="9c5b8c01c8"><path d="M 253.914062 142.902344 L 271.625 142.902344 L 271.625 160.960938 L 253.914062 160.960938 Z M 253.914062 142.902344 " clip-rule="nonzero"/></clipPath><clipPath id="5d9430ea20"><path d="M 271.621094 149.125 C 271.320312 155.453125 268.609375 158.917969 266.800781 159.972656 C 265.445312 160.875 264.089844 161.027344 262.433594 160.726562 C 260.324219 160.425781 256.710938 158.164062 255.351562 156.355469 C 254.296875 155.152344 253.847656 153.796875 253.996094 152.289062 C 254.148438 150.179688 255.503906 146.113281 257.460938 144.605469 C 259.421875 143.101562 263.636719 142.800781 265.746094 143.101562 C 267.253906 143.402344 269.363281 145.359375 269.363281 145.359375 " clip-rule="nonzero"/></clipPath><clipPath id="f6460e1810"><path d="M 253.253906 133.285156 L 271.496094 133.285156 L 271.496094 151.410156 L 253.253906 151.410156 Z M 253.253906 133.285156 " clip-rule="nonzero"/></clipPath><clipPath id="41a8e32457"><path d="M 262.433594 151.386719 C 253.546875 145.359375 253.09375 141.292969 253.996094 138.882812 C 254.902344 136.625 258.066406 134.0625 260.476562 133.460938 C 262.886719 133.007812 266.800781 134.0625 268.609375 135.71875 C 270.417969 137.527344 271.773438 141.292969 271.320312 143.703125 C 270.871094 146.265625 268.460938 149.429688 266.199219 150.480469 C 263.941406 151.535156 259.871094 151.386719 257.761719 150.03125 C 255.65625 148.824219 253.695312 145.058594 253.394531 142.800781 C 253.09375 140.839844 253.695312 138.730469 254.902344 137.226562 C 256.40625 135.417969 260.023438 133.460938 262.433594 133.308594 C 264.542969 133.160156 266.953125 134.214844 268.460938 135.570312 C 269.964844 136.925781 271.171875 139.183594 271.320312 141.140625 C 271.621094 143.25 271.171875 145.8125 269.816406 147.46875 C 268.308594 149.277344 262.433594 151.386719 262.433594 151.386719 " clip-rule="nonzero"/></clipPath><clipPath id="b9a5461eea"><path d="M 254.664062 119.3125 L 272.695312 119.3125 L 272.695312 137.464844 L 254.664062 137.464844 Z M 254.664062 119.3125 " clip-rule="nonzero"/></clipPath><clipPath id="9afae0b145"><path d="M 259.421875 136.472656 C 254.296875 127.132812 255.65625 123.214844 257.460938 121.558594 C 259.421875 119.902344 263.335938 119 265.746094 119.601562 C 268.15625 120.203125 271.171875 122.914062 272.074219 125.324219 C 272.828125 127.585938 272.375 131.652344 270.871094 133.609375 C 269.363281 135.71875 265.746094 137.527344 263.1875 137.375 C 260.777344 137.375 257.160156 135.265625 255.957031 133.160156 C 254.601562 131.050781 254.449219 126.980469 255.203125 124.722656 C 255.804688 122.914062 257.3125 121.257812 259.121094 120.503906 C 261.226562 119.449219 265.296875 119.148438 267.554688 120.203125 C 269.816406 121.410156 272.074219 124.722656 272.527344 127.132812 C 272.828125 129.089844 272.226562 131.652344 271.019531 133.308594 C 269.964844 134.964844 267.855469 136.625 265.898438 137.074219 C 263.941406 137.679688 259.421875 136.472656 259.421875 136.472656 " clip-rule="nonzero"/></clipPath><clipPath id="b14cea5b2f"><path d="M 206.605469 166.359375 L 265.261719 166.359375 L 265.261719 231.351562 L 206.605469 231.351562 Z M 206.605469 166.359375 " clip-rule="nonzero"/></clipPath><clipPath id="78de10ebd2"><path d="M 264.542969 178.804688 C 252.792969 204.863281 249.628906 209.835938 245.410156 214.355469 C 241.042969 219.023438 234.714844 223.84375 229.59375 226.707031 C 225.527344 228.964844 221.609375 230.773438 217.992188 230.925781 C 214.980469 231.226562 211.667969 230.625 209.707031 228.964844 C 207.902344 227.308594 206.695312 223.394531 206.847656 220.984375 C 206.847656 219.175781 208.050781 217.214844 209.40625 215.859375 C 210.613281 214.503906 212.570312 213.449219 214.53125 213.300781 C 216.789062 213.148438 220.855469 214.355469 222.511719 216.160156 C 224.171875 217.96875 224.921875 222.035156 224.472656 224.449219 C 224.171875 226.253906 223.117188 228.214844 221.457031 229.269531 C 219.5 230.625 215.582031 231.527344 213.171875 230.925781 C 210.761719 230.171875 208.050781 227.160156 207.148438 224.898438 C 206.394531 223.089844 206.695312 220.832031 207.296875 219.175781 C 207.902344 217.367188 209.105469 215.859375 210.914062 214.65625 C 213.023438 213.148438 216.488281 213.449219 219.5 211.644531 C 223.867188 209.234375 229.292969 205.464844 233.8125 200.042969 C 239.835938 192.511719 245.261719 173.230469 250.082031 168.859375 C 252.191406 167.054688 254.148438 166.601562 256.105469 166.601562 C 258.066406 166.601562 260.625 167.503906 262.132812 168.859375 C 263.636719 170.214844 264.84375 172.625 265.144531 174.433594 C 265.445312 175.941406 264.542969 178.804688 264.542969 178.804688 " clip-rule="nonzero"/></clipPath><clipPath id="2f8eaaed30"><path d="M 252.652344 151.511719 L 270.894531 151.511719 L 270.894531 169.636719 L 252.652344 169.636719 Z M 252.652344 151.511719 " clip-rule="nonzero"/></clipPath><clipPath id="570b3c3bc2"><path d="M 261.832031 151.535156 C 270.566406 157.5625 271.019531 161.628906 270.117188 164.039062 C 269.210938 166.300781 266.199219 168.859375 263.636719 169.464844 C 261.226562 170.066406 257.3125 168.859375 255.503906 167.203125 C 253.695312 165.546875 252.492188 161.628906 252.792969 159.21875 C 253.246094 156.660156 255.65625 153.496094 257.914062 152.441406 C 260.171875 151.386719 264.242188 151.535156 266.351562 152.890625 C 268.609375 154.25 270.417969 157.863281 270.71875 160.125 C 271.019531 162.082031 270.417969 164.191406 269.210938 165.695312 C 267.707031 167.503906 264.089844 169.464844 261.832031 169.613281 C 259.722656 169.765625 257.160156 168.859375 255.804688 167.355469 C 253.996094 165.695312 252.640625 161.929688 252.792969 159.519531 C 252.792969 157.5625 254.148438 155.152344 255.65625 153.945312 C 257.160156 152.589844 261.679688 151.535156 261.679688 151.535156 " clip-rule="nonzero"/></clipPath><clipPath id="8e44fbe824"><path d="M 253.222656 126.390625 L 271.34375 126.390625 L 271.34375 144.75 L 253.222656 144.75 Z M 253.222656 126.390625 " clip-rule="nonzero"/></clipPath><clipPath id="342a3bc738"><path d="M 253.246094 135.570312 C 259.269531 126.679688 263.335938 126.230469 265.597656 127.132812 C 268.007812 128.035156 270.566406 131.199219 271.171875 133.609375 C 271.621094 136.019531 270.566406 139.9375 268.761719 141.746094 C 267.101562 143.554688 263.335938 144.910156 260.777344 144.457031 C 258.367188 144.15625 255.050781 141.59375 253.996094 139.335938 C 253.09375 137.074219 253.246094 133.007812 254.601562 130.898438 C 255.804688 128.789062 259.421875 126.832031 261.832031 126.53125 C 263.636719 126.230469 265.898438 126.832031 267.40625 128.035156 C 269.210938 129.542969 271.320312 133.160156 271.320312 135.570312 C 271.320312 138.128906 269.210938 141.59375 267.40625 142.949219 C 265.746094 144.304688 263.1875 144.757812 261.226562 144.605469 C 259.269531 144.304688 256.859375 143.101562 255.503906 141.59375 C 254.148438 140.089844 253.246094 135.570312 253.246094 135.570312 " clip-rule="nonzero"/></clipPath><clipPath id="914d71d072"><path d="M 242.8125 85.59375 L 260.550781 85.59375 L 260.550781 103.332031 L 242.8125 103.332031 Z M 242.8125 85.59375 " clip-rule="nonzero"/></clipPath><clipPath id="b08c5818b1"><path d="M 260.476562 91.730469 C 260.171875 98.210938 257.914062 101.675781 255.65625 102.730469 C 253.394531 103.785156 249.175781 103.03125 247.21875 102.125 C 245.863281 101.523438 244.957031 100.320312 244.207031 99.113281 C 243.453125 97.910156 242.851562 96.550781 242.851562 95.046875 C 243 92.785156 244.355469 88.871094 246.316406 87.363281 C 248.273438 85.855469 252.492188 85.40625 254.601562 85.855469 C 256.105469 86.160156 258.367188 88.117188 258.367188 88.117188 " clip-rule="nonzero"/></clipPath><clipPath id="c7f25e27c4"><path d="M 242.703125 85.550781 L 271.617188 85.550781 L 271.617188 133.851562 L 242.703125 133.851562 Z M 242.703125 85.550781 " clip-rule="nonzero"/></clipPath><clipPath id="7ce21bd4ea"><path d="M 260.171875 90.828125 C 270.871094 116.890625 272.226562 123.96875 271.171875 127.585938 C 270.566406 129.84375 269.210938 131.199219 267.707031 132.253906 C 266.199219 133.308594 263.941406 133.910156 262.132812 133.761719 C 260.324219 133.761719 258.214844 132.855469 256.710938 131.652344 C 255.351562 130.445312 254.148438 128.488281 253.695312 126.679688 C 253.394531 125.023438 253.394531 122.765625 254.296875 120.957031 C 255.503906 119 258.667969 116.285156 261.078125 115.835938 C 263.488281 115.382812 267.40625 116.738281 269.0625 118.546875 C 270.871094 120.355469 271.773438 124.421875 271.472656 126.679688 C 271.171875 128.640625 269.816406 130.445312 268.460938 131.652344 C 267.101562 132.855469 264.84375 133.761719 263.035156 133.761719 C 261.226562 133.910156 258.96875 133.308594 257.460938 132.253906 C 255.957031 131.199219 255.050781 129.84375 253.996094 127.734375 C 252.191406 123.820312 251.738281 115.535156 249.78125 109.808594 C 247.972656 104.234375 242.851562 97.910156 242.851562 93.839844 C 242.851562 91.429688 244.355469 89.320312 245.5625 87.964844 C 246.617188 86.910156 247.820312 86.160156 249.328125 85.855469 C 251.136719 85.40625 253.847656 85.40625 255.65625 86.308594 C 257.460938 87.0625 260.171875 90.828125 260.171875 90.828125 " clip-rule="nonzero"/></clipPath><clipPath id="7de5722624"><path d="M 211.246094 80.6875 L 263.261719 80.6875 L 263.261719 127.253906 L 211.246094 127.253906 Z M 211.246094 80.6875 " clip-rule="nonzero"/></clipPath><clipPath id="7f1fa35952"><path d="M 245.261719 119.449219 C 238.78125 102.578125 236.070312 100.46875 233.058594 100.320312 C 229.441406 99.867188 224.019531 105.742188 220.40625 105.589844 C 217.542969 105.441406 214.378906 103.332031 212.871094 101.523438 C 211.667969 100.015625 211.214844 97.757812 211.367188 95.949219 C 211.515625 94.140625 212.269531 92.035156 213.476562 90.675781 C 214.679688 89.320312 216.636719 88.117188 218.445312 87.664062 C 220.253906 87.363281 222.511719 87.363281 224.171875 88.265625 C 226.28125 89.472656 228.691406 92.785156 229.292969 95.046875 C 229.742188 97.003906 229.140625 99.113281 228.386719 100.769531 C 227.484375 102.425781 225.976562 104.085938 224.171875 104.6875 C 221.910156 105.589844 217.84375 105.589844 215.734375 104.234375 C 213.625 102.878906 211.667969 99.265625 211.367188 97.003906 C 211.066406 95.046875 211.667969 93.238281 212.871094 91.429688 C 214.832031 88.570312 220.40625 84.351562 224.320312 82.695312 C 227.785156 81.335938 231.550781 80.585938 234.867188 81.035156 C 238.03125 81.640625 241.042969 83.898438 243.90625 85.707031 C 246.917969 87.363281 249.78125 89.019531 252.339844 91.28125 C 254.902344 93.691406 257.3125 96.25 258.96875 99.714844 C 261.078125 104.234375 263.1875 112.070312 263.035156 116.738281 C 262.886719 119.902344 261.980469 122.914062 260.324219 124.722656 C 258.96875 126.230469 256.40625 127.132812 254.449219 127.132812 C 252.492188 127.285156 249.929688 126.378906 248.421875 125.023438 C 246.765625 123.820312 245.261719 119.449219 245.261719 119.449219 " clip-rule="nonzero"/></clipPath><clipPath id="77c7660a06"><path d="M 199.390625 64 L 245.523438 64 L 245.523438 85.800781 L 199.390625 85.800781 Z M 199.390625 64 " clip-rule="nonzero"/></clipPath><clipPath id="3b85ca1e25"><path d="M 236.371094 85.707031 C 206.847656 81.1875 200.519531 76.214844 199.617188 73.050781 C 199.164062 71.246094 200.21875 68.984375 201.421875 67.628906 C 203.082031 65.820312 206.695312 63.863281 209.105469 64.015625 C 211.667969 64.164062 215.132812 66.121094 216.335938 68.382812 C 217.691406 70.492188 217.992188 74.558594 216.941406 76.820312 C 215.886719 79.078125 212.722656 81.488281 210.160156 81.941406 C 207.75 82.390625 203.832031 81.035156 202.175781 79.230469 C 200.367188 77.421875 199.316406 73.503906 199.917969 71.09375 C 200.367188 68.683594 202.929688 65.519531 205.339844 64.617188 C 207.601562 63.710938 211.667969 64.164062 213.777344 65.519531 C 215.734375 66.875 216.488281 72.902344 217.691406 72.902344 C 218.898438 72.902344 218.898438 67.78125 221.007812 66.574219 C 224.472656 64.765625 234.566406 66.425781 238.632812 67.929688 C 241.042969 68.683594 242.699219 69.890625 243.90625 71.546875 C 244.957031 73.203125 245.5625 75.765625 245.410156 77.722656 C 245.109375 79.679688 243.90625 82.089844 242.398438 83.445312 C 240.890625 84.800781 236.371094 85.707031 236.371094 85.707031 " clip-rule="nonzero"/></clipPath><clipPath id="640df1f8ff"><path d="M 172.453125 59.75 L 235.902344 59.75 L 235.902344 90.558594 L 172.453125 90.558594 Z M 172.453125 59.75 " clip-rule="nonzero"/></clipPath><clipPath id="5ba7b52eea"><path d="M 227.03125 78.324219 C 196.902344 80.886719 187.414062 90.375 181.839844 90.375 C 178.675781 90.375 175.816406 88.71875 174.308594 86.609375 C 172.800781 84.652344 172.351562 80.585938 173.253906 78.175781 C 174.15625 75.914062 177.171875 73.203125 179.582031 72.601562 C 181.992188 71.996094 185.90625 73.203125 187.714844 74.710938 C 189.222656 75.914062 190.277344 78.023438 190.578125 79.679688 C 190.878906 81.488281 190.578125 83.898438 189.671875 85.40625 C 188.921875 87.0625 187.261719 88.71875 185.605469 89.472656 C 183.949219 90.375 181.691406 90.675781 179.882812 90.226562 C 178.074219 89.925781 176.117188 88.71875 174.910156 87.363281 C 173.707031 86.007812 172.800781 83.898438 172.652344 82.089844 C 172.5 80.285156 172.800781 78.324219 174.15625 76.515625 C 176.117188 73.503906 181.386719 69.890625 185.90625 67.175781 C 191.179688 64.316406 199.164062 61.152344 204.285156 60.097656 C 207.902344 59.496094 210.160156 59.945312 213.625 59.945312 C 218.144531 59.945312 225.527344 59.34375 229.140625 60.550781 C 231.550781 61.300781 233.359375 62.355469 234.414062 64.164062 C 235.769531 66.121094 236.070312 70.339844 235.46875 72.449219 C 235.167969 73.957031 234.261719 75.160156 233.058594 76.066406 C 231.550781 77.121094 227.03125 78.324219 227.03125 78.324219 " clip-rule="nonzero"/></clipPath><clipPath id="f5ac717dd5"><path d="M 150.015625 72.863281 L 189.863281 72.863281 L 189.863281 120.15625 L 150.015625 120.15625 Z M 150.015625 72.863281 " clip-rule="nonzero"/></clipPath><clipPath id="47af07aa64"><path d="M 186.511719 89.019531 C 161.652344 120.203125 159.695312 120.355469 157.738281 120.050781 C 155.777344 119.75 153.367188 118.09375 152.164062 116.890625 C 151.109375 115.683594 150.507812 114.328125 150.207031 112.972656 C 150.054688 111.464844 149.902344 109.507812 150.65625 108 C 151.5625 105.890625 154.421875 102.878906 156.832031 102.277344 C 159.242188 101.675781 163.3125 102.878906 165.117188 104.234375 C 166.625 105.441406 167.679688 107.550781 167.980469 109.355469 C 168.28125 111.164062 167.980469 113.425781 167.226562 115.082031 C 166.476562 116.738281 164.816406 118.394531 163.160156 119.148438 C 161.503906 119.902344 159.394531 120.503906 157.4375 119.902344 C 155.175781 119.300781 151.863281 117.039062 150.808594 114.628906 C 149.902344 112.371094 150.207031 108.300781 151.410156 106.195312 C 152.765625 104.085938 156.382812 102.125 158.792969 101.976562 C 161.351562 101.976562 164.96875 103.632812 166.476562 105.742188 C 167.980469 108 167.980469 113.125 166.925781 115.535156 C 166.171875 117.492188 163.914062 119 162.105469 119.601562 C 160.148438 120.203125 157.4375 120.203125 155.628906 119.449219 C 153.820312 118.695312 151.863281 116.738281 150.957031 114.929688 C 150.054688 113.125 149.753906 111.316406 150.355469 108.605469 C 151.863281 102.878906 161.203125 90.226562 166.023438 84.199219 C 169.1875 80.132812 172.199219 76.820312 175.210938 75.011719 C 177.320312 73.65625 179.277344 72.75 181.238281 73.050781 C 183.648438 73.203125 187.113281 75.3125 188.46875 77.269531 C 189.671875 78.925781 190.125 81.640625 189.671875 83.597656 C 189.371094 85.554688 186.511719 89.019531 186.511719 89.019531 " clip-rule="nonzero"/></clipPath><clipPath id="74f57faa89"><path d="M 133.050781 101.449219 L 165.023438 101.449219 L 165.023438 185.460938 L 133.050781 185.460938 Z M 133.050781 101.449219 " clip-rule="nonzero"/></clipPath><clipPath id="64343379e8"><path d="M 163.613281 115.535156 C 154.875 131.199219 154.574219 133.007812 153.972656 137.226562 C 152.765625 146.265625 153.820312 172.324219 151.261719 179.105469 C 150.207031 181.664062 149.453125 182.71875 147.796875 183.625 C 145.6875 184.828125 141.617188 185.28125 139.359375 184.527344 C 137.402344 184.074219 135.894531 182.417969 134.839844 180.910156 C 133.9375 179.253906 133.332031 177.144531 133.636719 175.1875 C 134.085938 172.929688 136.496094 169.464844 138.457031 168.257812 C 140.113281 167.203125 142.222656 166.75 144.179688 167.203125 C 146.4375 167.804688 149.753906 170.066406 150.808594 172.476562 C 151.863281 174.734375 151.710938 178.652344 150.355469 180.910156 C 149.152344 183.019531 145.535156 184.980469 143.125 185.28125 C 141.167969 185.429688 139.058594 184.679688 137.550781 183.625 C 136.046875 182.71875 134.839844 181.664062 134.085938 179.105469 C 131.828125 172.175781 133.9375 146.867188 135.742188 135.570312 C 136.949219 128.339844 138.304688 123.367188 141.015625 117.792969 C 143.726562 112.371094 148.546875 104.835938 151.710938 102.730469 C 153.21875 101.675781 154.273438 101.523438 155.777344 101.523438 C 157.738281 101.675781 160.296875 102.425781 161.957031 103.632812 C 163.460938 104.988281 164.667969 107.398438 164.96875 109.355469 C 165.269531 111.316406 163.613281 115.535156 163.613281 115.535156 " clip-rule="nonzero"/></clipPath><clipPath id="28360e4981"><path d="M 154.140625 203.828125 L 205.160156 203.828125 L 205.160156 239 L 154.140625 239 Z M 154.140625 203.828125 " clip-rule="nonzero"/></clipPath><clipPath id="ea25ad353f"><path d="M 195.699219 238.910156 C 177.921875 236.046875 175.816406 234.839844 172.652344 232.582031 C 167.832031 229.269531 158.339844 221.886719 155.777344 217.820312 C 154.421875 215.710938 154.273438 214.054688 154.421875 212.246094 C 154.421875 210.4375 155.328125 208.328125 156.683594 206.972656 C 157.886719 205.617188 159.847656 204.410156 161.652344 204.109375 C 163.460938 203.660156 165.722656 203.808594 167.378906 204.863281 C 169.335938 206.070312 171.898438 209.234375 172.351562 211.644531 C 172.652344 214.203125 171.296875 217.96875 169.488281 219.625 C 167.527344 221.285156 163.460938 222.035156 161.203125 221.734375 C 159.242188 221.433594 157.4375 220.078125 156.382812 218.574219 C 155.175781 217.214844 154.421875 215.109375 154.273438 213.148438 C 154.273438 211.339844 154.726562 209.234375 155.929688 207.726562 C 157.585938 205.917969 161.203125 204.109375 163.613281 203.960938 C 165.570312 203.808594 166.925781 204.714844 169.035156 205.917969 C 172.652344 208.027344 177.171875 214.503906 182.441406 217.367188 C 188.015625 220.53125 198.863281 220.378906 202.328125 223.394531 C 204.136719 225.050781 204.738281 227.308594 205.039062 229.117188 C 205.191406 230.625 205.039062 232.128906 204.285156 233.484375 C 203.53125 235.144531 201.421875 237.25 199.917969 238.003906 C 198.5625 238.757812 195.699219 238.910156 195.699219 238.910156 " clip-rule="nonzero"/></clipPath><clipPath id="d974523080"><path d="M 145.726562 192.003906 L 184.558594 192.003906 L 184.558594 234 L 145.726562 234 Z M 145.726562 192.003906 " clip-rule="nonzero"/></clipPath><clipPath id="bd331e31ca"><path d="M 171.296875 233.335938 C 155.929688 222.941406 151.261719 215.859375 149 211.492188 C 147.492188 208.480469 146.589844 205.917969 146.289062 203.507812 C 145.988281 201.398438 145.835938 199.441406 146.589844 197.785156 C 147.191406 195.976562 148.546875 194.167969 150.207031 193.265625 C 152.3125 192.359375 156.382812 191.757812 158.792969 192.8125 C 161.050781 193.867188 163.3125 197.332031 163.914062 199.589844 C 164.367188 201.550781 163.914062 203.660156 162.859375 205.316406 C 161.652344 207.273438 158.339844 209.835938 155.929688 209.984375 C 153.367188 210.285156 149.753906 208.628906 148.097656 206.972656 C 146.742188 205.617188 145.988281 203.359375 145.835938 201.550781 C 145.835938 199.742188 146.4375 197.484375 147.492188 195.976562 C 148.398438 194.46875 150.355469 193.113281 152.011719 192.511719 C 153.820312 191.910156 156.082031 191.910156 157.738281 192.511719 C 159.546875 193.113281 160.902344 194.167969 162.40625 195.976562 C 164.816406 198.839844 166.023438 204.863281 169.1875 208.929688 C 172.800781 213.601562 181.839844 218.269531 183.648438 221.734375 C 184.550781 223.394531 184.550781 224.597656 184.25 226.105469 C 183.949219 227.910156 182.742188 230.472656 181.386719 231.828125 C 180.332031 232.882812 179.128906 233.636719 177.621094 233.9375 C 175.816406 234.238281 171.296875 233.335938 171.296875 233.335938 " clip-rule="nonzero"/></clipPath><clipPath id="64c1f8112e"><path d="M 149.691406 206.46875 L 174.367188 206.46875 L 174.367188 232.703125 L 149.691406 232.703125 Z M 149.691406 206.46875 " clip-rule="nonzero"/></clipPath><clipPath id="4788691b68"><path d="M 158.492188 229.570312 C 149.453125 216.464844 149.300781 214.503906 150.054688 212.699219 C 150.957031 210.589844 153.820312 207.574219 156.230469 206.820312 C 158.640625 206.21875 162.558594 207.125 164.515625 208.78125 C 166.476562 210.285156 167.679688 214.203125 167.679688 216.613281 C 167.527344 218.574219 166.476562 220.53125 165.269531 221.886719 C 163.914062 223.089844 162.105469 224.296875 160.148438 224.597656 C 157.738281 224.75 153.820312 223.695312 152.164062 221.886719 C 150.355469 220.078125 149.300781 216.160156 149.902344 213.601562 C 150.355469 211.191406 153.21875 208.179688 155.328125 207.273438 C 156.984375 206.371094 159.394531 206.371094 161.050781 206.972656 C 162.859375 207.425781 164.214844 208.628906 165.871094 210.136719 C 168.28125 212.394531 172.046875 216.464844 173.402344 219.476562 C 174.308594 221.585938 174.609375 223.84375 174.007812 225.804688 C 173.554688 227.761719 171.898438 230.019531 170.390625 231.074219 C 169.1875 231.980469 167.980469 232.582031 166.324219 232.582031 C 164.214844 232.582031 158.492188 229.570312 158.492188 229.570312 " clip-rule="nonzero"/></clipPath><clipPath id="163e32ae2b"><path d="M 133.34375 180.136719 L 151.585938 180.136719 L 151.585938 198.257812 L 133.34375 198.257812 Z M 133.34375 180.136719 " clip-rule="nonzero"/></clipPath><clipPath id="a39bd16979"><path d="M 142.523438 198.234375 C 133.636719 192.058594 133.183594 188.144531 134.085938 185.734375 C 134.992188 183.472656 138.152344 180.761719 140.5625 180.308594 C 142.972656 179.707031 146.890625 180.910156 148.699219 182.570312 C 150.507812 184.226562 151.863281 188.144531 151.410156 190.554688 C 150.957031 193.113281 148.546875 196.277344 146.289062 197.332031 C 144.027344 198.386719 139.960938 198.085938 137.851562 196.878906 C 135.742188 195.523438 133.785156 191.910156 133.484375 189.648438 C 133.183594 187.691406 133.785156 185.582031 134.992188 184.074219 C 136.496094 182.269531 140.113281 180.308594 142.523438 180.160156 C 144.632812 180.007812 147.042969 181.0625 148.546875 182.417969 C 150.054688 183.625 151.261719 186.035156 151.410156 187.992188 C 151.710938 189.949219 151.261719 192.660156 149.902344 194.320312 C 148.398438 196.125 142.523438 198.234375 142.523438 198.234375 " clip-rule="nonzero"/></clipPath><clipPath id="28d89550e8"><path d="M 133.644531 187.214844 L 151.886719 187.214844 L 151.886719 205.339844 L 133.644531 205.339844 Z M 133.644531 187.214844 " clip-rule="nonzero"/></clipPath><clipPath id="7256db6038"><path d="M 142.824219 205.316406 C 133.9375 199.289062 133.484375 195.375 134.386719 192.964844 C 135.292969 190.703125 138.457031 187.992188 140.867188 187.539062 C 143.277344 186.9375 147.191406 187.992188 149 189.800781 C 150.808594 191.457031 152.164062 195.375 151.710938 197.785156 C 151.261719 200.195312 148.851562 203.507812 146.589844 204.5625 C 144.332031 205.617188 140.261719 205.316406 138.152344 204.109375 C 136.046875 202.753906 134.085938 199.140625 133.785156 196.878906 C 133.484375 194.921875 134.085938 192.8125 135.292969 191.304688 C 136.796875 189.5 140.261719 187.238281 142.824219 187.238281 C 145.234375 187.238281 148.699219 189.347656 150.207031 191.15625 C 151.5625 192.8125 152.011719 195.375 151.710938 197.484375 C 151.5625 199.441406 150.207031 201.699219 148.699219 203.054688 C 147.191406 204.410156 142.824219 205.316406 142.824219 205.316406 " clip-rule="nonzero"/></clipPath><clipPath id="3ca366c8e7"><path d="M 131.292969 174.6875 L 149.234375 174.6875 L 149.234375 192.746094 L 131.292969 192.746094 Z M 131.292969 174.6875 " clip-rule="nonzero"/></clipPath><clipPath id="1fd267fa21"><path d="M 149.152344 180.910156 C 146.742188 190.554688 145.386719 191.304688 144.179688 191.757812 C 142.824219 192.359375 141.46875 192.8125 139.960938 192.660156 C 137.703125 192.210938 134.085938 189.949219 132.730469 188.292969 C 131.828125 187.089844 131.375 185.730469 131.375 184.074219 C 131.527344 181.964844 132.882812 178.050781 134.839844 176.394531 C 136.796875 174.886719 141.015625 174.585938 143.125 174.886719 C 144.632812 175.1875 146.890625 177.144531 146.890625 177.144531 " clip-rule="nonzero"/></clipPath></defs><path fill="#000000" d="M 271.84375 130.878906 C 272.183594 135.394531 272.25 138.199219 271.914062 138.238281 C 271.605469 138.277344 270.941406 135.542969 270.175781 131.085938 C 269.382812 126.628906 268.527344 120.46875 267.070312 113.800781 C 266.316406 110.480469 265.441406 107.371094 264.519531 104.585938 C 263.535156 101.8125 262.5625 99.367188 261.558594 97.367188 C 259.625 93.425781 257.957031 91.078125 258.285156 90.867188 C 258.511719 90.710938 260.585938 92.59375 263.050781 96.5625 C 264.28125 98.515625 265.472656 101 266.582031 103.835938 C 267.664062 106.679688 268.636719 109.886719 269.414062 113.296875 C 270.890625 120.109375 271.488281 126.371094 271.84375 130.878906 " fill-opacity="1" fill-rule="nonzero"/><path fill="#000000" d="M 255.347656 167.359375 C 264.03125 164.558594 268.191406 153.871094 264.757812 145.519531 C 261.472656 137.59375 252.617188 134.820312 244.644531 137.070312 C 236.871094 139.257812 229.050781 146.121094 232.613281 155.097656 C 236.089844 163.855469 246.113281 169.320312 255.347656 167.359375 Z M 269.3125 145.824219 C 271.746094 156.257812 267.546875 167.488281 257.074219 171.214844 C 256.894531 171.324219 256.707031 171.402344 256.46875 171.441406 C 256.238281 171.53125 256.03125 171.542969 255.832031 171.5625 C 244.773438 173.523438 230.191406 166.648438 228.078125 154.691406 C 226.113281 143.597656 234.023438 134.394531 244.972656 132.652344 C 255.117188 131.046875 266.683594 134.660156 269.3125 145.824219 " fill-opacity="1" fill-rule="nonzero"/><path fill="#000000" d="M 265.015625 171.828125 C 265.34375 171.957031 264.6875 174.316406 263.664062 178.117188 C 262.632812 181.921875 261.28125 187.222656 259.207031 192.96875 C 258.136719 195.839844 256.933594 198.523438 255.664062 200.871094 C 254.34375 203.191406 252.984375 205.210938 251.632812 206.746094 C 248.921875 209.867188 246.78125 211.085938 246.589844 210.886719 C 246.3125 210.628906 248.140625 208.847656 250.292969 205.707031 C 251.40625 204.140625 252.546875 202.128906 253.707031 199.851562 C 254.820312 197.554688 255.933594 194.949219 256.964844 192.144531 C 258.988281 186.539062 260.585938 181.296875 262.066406 177.59375 C 263.496094 173.878906 264.71875 171.699219 265.015625 171.828125 " fill-opacity="1" fill-rule="nonzero"/><path fill="#000000" d="M -1.90625 270.789062 C -3.136719 267.25 -4.296875 263.703125 -5.546875 260.179688 C -10.582031 258.257812 -15.285156 255.472656 -20.617188 254.601562 C -19.433594 258.414062 -17.808594 262.109375 -16.1875 265.753906 C -11.554688 266.308594 -6.710938 268.804688 -1.90625 270.789062 Z M 14.902344 271.28125 C 15.765625 270.707031 16.589844 270.085938 17.382812 269.421875 C 15.765625 265.792969 12.09375 263.515625 10.105469 260.128906 C 7.574219 261.484375 4.804688 262.277344 1.835938 262.019531 C 0.160156 261.882812 -1.4375 261.546875 -2.996094 261.070312 C -1.746094 264.636719 -0.585938 268.230469 0.6875 271.796875 C 5.601562 273.550781 10.425781 274.265625 14.902344 271.28125 Z M 27.121094 258.277344 C 24.550781 256.125 22.386719 253.582031 20.242188 251.023438 C 20.082031 251.234375 19.914062 251.429688 19.746094 251.640625 C 17.582031 254.246094 14.929688 257.019531 11.894531 259.050781 C 13.640625 262.359375 17.144531 264.664062 19.011719 268.003906 C 22.046875 265.160156 24.667969 261.761719 27.121094 258.277344 Z M 33.066406 249.507812 C 33.871094 248.351562 34.695312 247.140625 35.558594 245.902344 C 33.265625 243.65625 31.371094 241.078125 29.511719 238.472656 C 26.960938 242.167969 24.382812 245.835938 21.601562 249.351562 C 23.714844 251.867188 25.839844 254.375 28.332031 256.523438 C 29.949219 254.144531 31.507812 251.757812 33.066406 249.507812 Z M 42.566406 236.214844 C 41.414062 233.027344 39.898438 229.679688 37.324219 227.449219 C 35.070312 230.441406 32.929688 233.523438 30.804688 236.621094 C 32.660156 239.238281 34.527344 241.832031 36.800781 244.121094 C 38.597656 241.535156 40.511719 238.832031 42.566406 236.214844 Z M 51.589844 226.429688 C 50.089844 223.03125 48.265625 219.820312 46.597656 216.511719 C 43.707031 219.414062 41.078125 222.507812 38.597656 225.734375 C 41.1875 227.945312 42.84375 231.105469 44.09375 234.292969 C 46.417969 231.460938 48.898438 228.777344 51.589844 226.429688 Z M 64.722656 219.058594 C 63.144531 215.316406 61.566406 211.582031 59.699219 207.953125 C 55.472656 209.292969 51.609375 211.777344 48.207031 214.949219 C 48.207031 214.957031 48.207031 214.957031 48.207031 214.957031 C 49.863281 218.328125 51.730469 221.605469 53.277344 225.03125 C 56.753906 222.269531 60.542969 220.148438 64.722656 219.058594 Z M 76.25 218.59375 C 75.523438 214.957031 74.71875 211.324219 73.21875 207.933594 C 72.425781 207.675781 71.601562 207.441406 70.71875 207.28125 C 67.632812 206.6875 64.644531 206.785156 61.792969 207.390625 C 63.652344 211.054688 65.238281 214.828125 66.808594 218.605469 C 66.835938 218.605469 66.859375 218.605469 66.886719 218.59375 C 69.996094 218.089844 73.171875 218.097656 76.25 218.59375 Z M 86.832031 222.605469 C 86.214844 220.683594 85.6875 218.722656 85.550781 216.710938 C 82.640625 213.730469 79.722656 210.867188 75.921875 209.003906 C 77.113281 212.242188 77.828125 215.640625 78.5 219.03125 C 81.441406 219.753906 84.238281 220.953125 86.832031 222.605469 Z M 102.066406 236.355469 C 101.628906 233.414062 100.570312 230.570312 99.535156 227.746094 C 97.433594 226.636719 95.425781 225.417969 93.550781 224.0625 C 91.535156 222.636719 89.777344 221 88.101562 219.316406 C 88.519531 221.167969 89.183594 222.980469 89.839844 224.773438 C 93.054688 227.449219 95.703125 230.53125 98.691406 233.5 C 99.773438 234.542969 100.894531 235.492188 102.066406 236.355469 Z M 114.199219 242.566406 C 114.753906 242.765625 115.320312 242.960938 115.875 243.160156 C 114.554688 239.722656 113.453125 236.214844 111.914062 232.859375 C 108.648438 231.816406 105.382812 230.589844 102.265625 229.113281 C 103.289062 231.984375 104.183594 234.890625 104.351562 237.910156 C 107.410156 239.820312 110.734375 241.277344 114.199219 242.566406 Z M 126.714844 174.414062 C 126.449219 169.222656 126.546875 164.023438 126.964844 158.890625 C 124.234375 158.109375 121.554688 157.058594 118.765625 156.574219 C 118.546875 161.902344 118.734375 167.300781 119.300781 172.601562 C 121.742188 173.324219 124.242188 173.78125 126.714844 174.414062 Z M 129.21875 192.671875 C 128.015625 187.410156 127.242188 182.050781 126.855469 176.652344 C 124.441406 175.980469 121.992188 175.53125 119.589844 174.871094 C 120.292969 180.386719 121.414062 185.757812 122.945312 190.789062 C 123.042969 191.15625 123.171875 191.511719 123.300781 191.867188 C 125.296875 191.816406 127.292969 192.117188 129.21875 192.671875 Z M 127.351562 154.878906 C 127.878906 150.34375 128.632812 145.746094 129.574219 141.148438 C 126.785156 140.179688 123.835938 139.882812 120.917969 139.445312 C 119.855469 144.261719 119.160156 149.3125 118.863281 154.464844 C 121.703125 154.957031 124.394531 155.929688 127.164062 156.742188 C 127.222656 156.117188 127.28125 155.492188 127.351562 154.878906 Z M 132.5625 247.695312 C 131.273438 243.726562 129.476562 239.929688 128.234375 235.949219 C 124.96875 235.820312 121.742188 235.492188 118.546875 234.710938 C 117.234375 234.394531 115.894531 234.035156 114.566406 233.652344 C 115.984375 237.078125 117.105469 240.625 118.507812 244.0625 C 123.042969 245.578125 127.777344 246.875 132.5625 247.695312 Z M 130.011719 139.070312 C 131.0625 134.363281 132.34375 129.660156 133.84375 125.023438 C 131.253906 124.371094 128.632812 123.726562 126.058594 122.972656 C 124.609375 126.699219 123.339844 130.453125 122.238281 134.207031 C 121.941406 135.246094 121.652344 136.304688 121.386719 137.375 C 124.292969 137.8125 127.242188 138.109375 130.011719 139.070312 Z M 134.527344 123.011719 C 135.769531 119.355469 137.167969 115.769531 138.71875 112.246094 C 136.375 111.582031 134.011719 110.988281 131.71875 110.144531 C 129.941406 113.699219 128.3125 117.328125 126.84375 120.992188 C 129.375 121.726562 131.957031 122.359375 134.527344 123.011719 Z M 137.683594 216.007812 C 137.984375 216.304688 138.308594 216.582031 138.636719 216.871094 C 134.675781 210.09375 131.769531 202.722656 129.804688 195.078125 C 127.917969 194.453125 125.980469 194.046875 123.996094 193.996094 C 126.914062 202.269531 131.222656 209.875 137.683594 216.007812 Z M 146.867188 96.851562 C 144.425781 96.535156 141.160156 96.457031 139.519531 96.425781 C 137.070312 100.238281 134.796875 104.191406 132.691406 108.242188 C 134.964844 109.035156 137.289062 109.621094 139.601562 110.285156 C 141.734375 105.648438 144.15625 101.152344 146.867188 96.851562 Z M 148.8125 248.300781 C 149.082031 248.261719 149.347656 248.222656 149.617188 248.183594 C 148.386719 243.863281 146.964844 239.625 144.742188 235.699219 C 139.988281 235.75 135.214844 236.046875 130.488281 236 C 131.816406 240.078125 133.683594 243.953125 134.90625 248.0625 C 139.550781 248.71875 144.246094 248.886719 148.8125 248.300781 Z M 155.683594 84.84375 C 153.429688 84.300781 151.144531 83.984375 148.882812 83.539062 C 146.074219 86.964844 143.414062 90.550781 140.902344 94.304688 C 143.621094 94.324219 145.714844 94.472656 148.097656 94.929688 C 150.421875 91.402344 152.941406 88.023438 155.683594 84.84375 Z M 151.722656 247.855469 C 154.421875 247.390625 157.101562 246.777344 159.78125 246.222656 C 157.726562 242.546875 155.375 239.128906 152.546875 236 C 152 235.949219 151.433594 235.898438 150.878906 235.859375 C 149.644531 235.847656 148.40625 235.890625 147.175781 235.722656 C 149.199219 239.5625 150.550781 243.675781 151.722656 247.855469 Z M 166.523438 74.238281 C 165.203125 73.800781 163.890625 73.40625 162.519531 73.105469 C 158.003906 75.503906 153.585938 78.316406 150.460938 81.6875 C 152.734375 82.101562 155.015625 82.46875 157.25 83.074219 C 160.117188 79.902344 163.207031 76.949219 166.523438 74.238281 Z M 169.054688 244.894531 C 169.640625 244.875 170.222656 244.84375 170.800781 244.8125 C 165.886719 243.171875 161.191406 240.792969 156.851562 237.613281 C 156.734375 237.523438 156.605469 237.445312 156.457031 237.355469 C 158.53125 240 160.355469 242.824219 161.976562 245.804688 C 164.328125 245.359375 166.679688 245.011719 169.054688 244.894531 Z M 178.414062 66.191406 C 178.453125 66.164062 178.492188 66.144531 178.542969 66.113281 C 178.464844 66.074219 178.414062 66.015625 178.375 65.964844 C 176.171875 66.707031 173.988281 67.550781 171.890625 68.539062 C 169.867188 69.480469 167.644531 70.511719 165.390625 71.652344 C 166.292969 71.898438 167.195312 72.195312 168.109375 72.523438 C 168.238281 72.5625 168.347656 72.640625 168.449219 72.722656 C 171.585938 70.324219 174.878906 68.113281 178.414062 66.191406 Z M 204.144531 56.742188 C 203.210938 56.644531 202.257812 56.554688 201.316406 56.542969 C 194.792969 56.40625 188.222656 57.199219 181.910156 58.921875 C 170.222656 62.113281 158.730469 67.351562 149.488281 75.355469 C 131.71875 90.769531 120.164062 113.464844 115.410156 136.285156 C 110.257812 161.019531 110.734375 188.105469 124.910156 209.984375 C 128.234375 215.097656 132.027344 220.058594 136.730469 224.023438 C 139.988281 226.765625 144.949219 231.789062 149.597656 231.273438 C 146.90625 228.558594 144.484375 225.648438 142.300781 222.574219 C 137.765625 218.664062 132.910156 214.957031 129.644531 210.003906 C 124.5625 202.320312 121.019531 193.929688 119.332031 184.835938 C 117.542969 175.214844 116.570312 165.351562 116.917969 155.5625 C 116.839844 155.296875 116.847656 155 116.949219 154.761719 C 117.195312 149.203125 117.871094 143.6875 119.070312 138.257812 C 119.09375 138.160156 119.121094 138.058594 119.152344 137.960938 C 119.835938 134.929688 120.679688 131.917969 121.722656 128.964844 C 124.910156 119.953125 128.671875 111.125 133.4375 102.835938 C 137.882812 95.097656 142.828125 85.410156 149.714844 79.507812 C 161.480469 69.441406 175.644531 64.378906 190.285156 60.726562 C 194.804688 59.03125 199.457031 57.675781 204.144531 56.742188 Z M 215.707031 238.730469 C 275.84375 214.789062 290.359375 130.730469 258.53125 79.605469 C 249.707031 66.429688 236.1875 60.179688 221.605469 59.367188 C 221.496094 59.386719 221.375 59.398438 221.269531 59.398438 C 220.503906 59.386719 219.738281 59.347656 218.984375 59.269531 C 212.761719 59.21875 206.367188 60.109375 200.125 61.863281 C 178.097656 68.027344 160.726562 82.011719 149.148438 101.644531 C 131.222656 132.046875 123.183594 174.335938 138.609375 207.449219 C 142.945312 216.769531 149.0625 225.875 157.101562 232.511719 C 157.25 232.609375 157.378906 232.710938 157.5 232.839844 C 157.945312 233.203125 158.410156 233.570312 158.898438 233.929688 C 163.316406 237.15625 167.277344 239.265625 172.753906 240.664062 C 173.28125 240.792969 173.648438 241.058594 173.886719 241.40625 C 187.46875 245.28125 202.675781 243.902344 215.707031 238.730469 Z M 262.226562 77.476562 C 293.1875 127.242188 282.160156 205.972656 228.980469 236.9375 C 217.027344 243.882812 202.675781 248.054688 188.6875 247.804688 C 188.519531 247.886719 188.332031 247.933594 188.132812 247.953125 C 180.339844 248.953125 172.28125 248.230469 164.535156 249.679688 C 158.582031 250.796875 152.375 252.777344 146.261719 252.71875 C 135.558594 252.601562 125.15625 251.09375 115.089844 247.398438 C 105.304688 243.792969 98.851562 239.367188 91.585938 232.027344 C 84.109375 224.488281 73.050781 219.1875 62.699219 224.4375 C 46.925781 232.421875 38.289062 250.214844 28.035156 263.804688 C 23.289062 270.09375 18.105469 276.105469 9.9375 277.433594 C 0.0507812 279.046875 -7.929688 270.183594 -17.589844 269.875 C -18.414062 269.847656 -19 269.429688 -19.328125 268.875 C -19.445312 268.738281 -19.566406 268.570312 -19.664062 268.359375 C -21.90625 263.296875 -24.261719 258.15625 -25.539062 252.757812 C -25.796875 251.6875 -25.273438 250.867188 -24.527344 250.441406 C -24.199219 250.203125 -23.773438 250.054688 -23.265625 250.074219 C -19.367188 250.203125 -15.753906 250.996094 -12.207031 252.667969 C -7.175781 255.066406 -0.953125 259.1875 4.914062 257.511719 C 14.019531 254.867188 19.46875 245.289062 24.597656 237.980469 C 32.511719 226.675781 40.71875 212.382812 53.507812 205.925781 C 68.027344 198.554688 81.390625 205.140625 91.59375 216.355469 C 99.1875 224.707031 113.007812 230.53125 124.292969 231.304688 C 129.328125 231.648438 134.347656 231.519531 139.371094 231.453125 C 131.589844 225.675781 124.839844 218.632812 120.035156 210.125 C 107.070312 187.171875 105.550781 160.554688 111.308594 135.175781 C 116.808594 110.886719 128.699219 86.835938 148.296875 70.867188 C 157.578125 63.320312 169.140625 57.644531 180.777344 54.820312 C 187.230469 53.265625 194.632812 51.613281 201.316406 52.296875 C 208.015625 53 214.488281 55.089844 221.269531 55.15625 C 221.636719 55.15625 221.941406 55.246094 222.210938 55.386719 C 237.785156 56.246094 252.378906 62.777344 262.226562 77.476562 " fill-opacity="1" fill-rule="nonzero"/><path fill="#000000" d="M 238.003906 124.875 C 245.371094 119.574219 250.988281 109.769531 249.628906 100.507812 C 247.554688 91.246094 240.136719 84.429688 230.539062 89.441406 C 222.488281 93.621094 217.613281 101.855469 217.265625 110.917969 C 217.027344 117.109375 218.507812 123.816406 224.890625 126.5 C 229.347656 128.382812 234.09375 127.6875 238.003906 124.875 Z M 253.777344 99.914062 C 255.285156 112.175781 247.644531 125.726562 236.21875 130.589844 C 224.078125 135.761719 212.484375 124.90625 212.949219 112.710938 C 213.386719 101 219.125 88.261719 231.253906 84.589844 C 242.691406 81.121094 250.96875 88.035156 253.589844 98.902344 C 253.648438 99.039062 253.6875 99.199219 253.71875 99.378906 C 253.757812 99.566406 253.777344 99.742188 253.777344 99.914062 " fill-opacity="1" fill-rule="nonzero"/><path fill="#000000" d="M 239.921875 201.664062 C 241.777344 193.761719 238.777344 186.707031 230.507812 184.4375 C 224.515625 182.8125 216.59375 183.042969 211.6875 187.410156 C 204.402344 193.886719 206.417969 205.964844 211.855469 213.117188 C 222.398438 226.984375 235.910156 213.492188 239.921875 201.664062 Z M 231.640625 180.355469 C 241.886719 183.714844 246.324219 191.945312 244.128906 202.230469 C 244.109375 202.417969 244.078125 202.597656 244.011719 202.785156 C 243.96875 202.960938 243.910156 203.121094 243.839844 203.277344 C 240.128906 213.53125 227.046875 230.371094 214.617188 221.566406 C 204.710938 214.550781 198.367188 197.980469 206.050781 187.203125 C 211.421875 179.664062 223.222656 177.59375 231.640625 180.355469 " fill-opacity="1" fill-rule="nonzero"/><path fill="#000000" d="M 237.417969 72.214844 C 238.640625 73.175781 239.253906 73.769531 239.15625 73.898438 C 239.046875 74.019531 238.261719 73.703125 236.921875 72.988281 C 235.613281 72.253906 233.65625 71.304688 231.203125 70.246094 C 229.953125 69.777344 228.632812 69.175781 227.113281 68.757812 C 226.371094 68.539062 225.605469 68.273438 224.8125 68.054688 C 223.996094 67.886719 223.164062 67.6875 222.300781 67.5 C 218.875 66.828125 215.035156 66.460938 210.992188 66.640625 C 202.882812 67.054688 195.785156 69.402344 190.8125 71.363281 C 185.847656 73.355469 182.820312 74.941406 182.632812 74.601562 C 182.523438 74.34375 185.175781 72.292969 190.117188 69.820312 C 195.023438 67.421875 202.347656 64.6875 210.875 64.25 C 215.132812 64.0625 219.191406 64.519531 222.785156 65.351562 C 223.679688 65.597656 224.542969 65.816406 225.378906 66.042969 C 226.210938 66.300781 227.003906 66.609375 227.769531 66.894531 C 229.328125 67.402344 230.660156 68.144531 231.917969 68.71875 C 234.359375 70.015625 236.246094 71.226562 237.417969 72.214844 " fill-opacity="1" fill-rule="nonzero"/><path fill="#000000" d="M 217.464844 154.859375 C 217.503906 154.007812 217.484375 151.601562 216.265625 151.421875 C 214.886719 151.222656 213.476562 154.226562 213.148438 155.1875 C 212.878906 155.949219 212.542969 156.929688 212.851562 157.742188 C 213.148438 158.464844 214.121094 158.40625 214.816406 158.335938 C 216.523438 158.011719 217.386719 156.523438 217.464844 154.859375 Z M 216.375 149.3125 C 218.84375 149.410156 219.6875 152.621094 219.589844 154.601562 C 219.460938 157.238281 218.160156 159.902344 215.339844 160.386719 C 215.28125 160.398438 215.242188 160.386719 215.183594 160.386719 C 215.144531 160.398438 215.113281 160.417969 215.0625 160.425781 C 211.519531 160.8125 209.882812 158.109375 211.003906 154.898438 C 211.769531 152.679688 213.585938 149.214844 216.375 149.3125 " fill-opacity="1" fill-rule="nonzero"/><path fill="#000000" d="M 199.816406 175.789062 C 221.078125 181.914062 232.664062 144.882812 214.84375 134.722656 C 192.46875 121.921875 180.140625 166.648438 199.816406 175.789062 Z M 214.835938 131.285156 C 236.027344 143.398438 224.992188 186.261719 198.933594 178.644531 C 198.832031 178.613281 198.773438 178.554688 198.695312 178.515625 C 198.644531 178.503906 198.613281 178.503906 198.574219 178.484375 C 187.578125 173.640625 185.421875 158.246094 188.074219 147.765625 C 190.773438 137.097656 202.585938 124.300781 214.835938 131.285156 " fill-opacity="1" fill-rule="nonzero"/><path fill="#000000" d="M 204.511719 143.21875 C 207.421875 146.203125 211.726562 141.449219 209.882812 138.335938 C 207.617188 135.226562 201.878906 140.488281 204.511719 143.21875 Z M 211.726562 137.265625 C 213.304688 139.910156 212.253906 143.261719 209.910156 145.101562 C 207.746094 146.804688 204.273438 146.65625 202.644531 144.25 C 199.171875 139.070312 207.320312 132.226562 211.421875 136.929688 C 211.53125 137.007812 211.640625 137.109375 211.726562 137.265625 " fill-opacity="1" fill-rule="nonzero"/><path fill="#000000" d="M 204.5625 171.90625 C 208.453125 171.996094 209.214844 163.773438 206.03125 164.160156 C 204.195312 164.378906 202.972656 165.972656 202.703125 167.6875 C 202.425781 169.390625 202.65625 171.472656 204.5625 171.90625 Z M 206.566406 162.042969 C 212.679688 162.320312 210.496094 174.484375 204.433594 174.039062 C 204.371094 174.039062 204.332031 174.007812 204.273438 173.988281 C 204.234375 173.988281 204.195312 174.007812 204.144531 174.007812 C 200.800781 173.421875 200.035156 169.660156 200.699219 166.816406 C 201.34375 164.160156 203.707031 161.902344 206.566406 162.042969 " fill-opacity="1" fill-rule="nonzero"/><path fill="#000000" d="M 202.65625 231.757812 C 202.703125 231.917969 201.871094 232.261719 200.28125 232.808594 C 198.703125 233.402344 196.339844 233.878906 193.363281 234.273438 C 191.882812 234.402344 190.226562 234.609375 188.5 234.640625 C 187.636719 234.691406 186.742188 234.710938 185.820312 234.738281 C 184.875 234.730469 183.894531 234.699219 182.902344 234.691406 C 178.941406 234.503906 174.53125 233.800781 170.195312 232.09375 C 165.855469 230.402344 162.152344 227.824219 159.234375 225.121094 C 156.289062 222.425781 154.082031 219.59375 152.367188 217.175781 C 148.992188 212.253906 147.503906 208.914062 147.742188 208.765625 C 148.058594 208.570312 150.09375 211.621094 153.707031 216.15625 C 155.5625 218.40625 157.835938 221.011719 160.695312 223.488281 C 163.5625 225.964844 167.027344 228.292969 171.066406 229.875 C 179.1875 233.074219 187.46875 232.71875 193.234375 232.589844 C 196.113281 232.421875 198.464844 232.195312 200.0625 231.898438 C 201.683594 231.660156 202.617188 231.589844 202.65625 231.757812 " fill-opacity="1" fill-rule="nonzero"/><path fill="#000000" d="M 195.996094 157.316406 C 198.070312 158.335938 199.46875 155.78125 199.457031 154.027344 C 199.457031 152.441406 198.832031 149.835938 196.9375 149.480469 C 194.722656 149.074219 193.703125 151.363281 193.632812 153.175781 C 193.703125 154.691406 194.566406 156.613281 195.996094 157.316406 Z M 196.71875 147.300781 C 199.867188 147.390625 201.78125 151.265625 201.582031 154.027344 C 201.394531 156.652344 199.617188 160.269531 196.382812 159.652344 C 193.464844 159.109375 191.644531 155.960938 191.507812 153.175781 C 191.636719 150.175781 193.433594 147.222656 196.71875 147.300781 " fill-opacity="1" fill-rule="nonzero"/><path fill="#000000" d="M 191.84375 208.003906 C 194.484375 200.761719 193.722656 189.757812 187.675781 184.289062 C 177.421875 175 161.546875 188.292969 161.023438 199.742188 C 160.636719 207.886719 164.199219 217.246094 173.144531 219.117188 C 181.839844 220.929688 188.191406 215.355469 191.84375 208.003906 Z M 188.121094 179.207031 C 197.035156 185.785156 199.707031 199.289062 195.855469 209.402344 C 195.824219 209.46875 195.785156 209.53125 195.746094 209.597656 C 195.714844 209.699219 195.6875 209.796875 195.648438 209.894531 C 190.773438 219.921875 180.867188 226.566406 169.667969 222.4375 C 159.503906 218.691406 154.234375 205.605469 157.410156 195.523438 C 160.8125 184.707031 176.230469 170.441406 188.121094 179.207031 " fill-opacity="1" fill-rule="nonzero"/><path fill="#000000" d="M 181.015625 129.667969 C 199.816406 129.570312 207.777344 100.101562 191.25 90.699219 C 179.832031 84.191406 163.472656 92.105469 163.234375 105.765625 C 163.019531 117.160156 168.46875 128.578125 181.015625 129.667969 Z M 189.5625 85.144531 C 214.140625 92.929688 205.832031 133.078125 181.628906 133.890625 C 181.441406 133.910156 181.242188 133.9375 181.015625 133.910156 C 180.796875 133.910156 180.597656 133.890625 180.410156 133.828125 C 165.429688 132.175781 157.964844 118.347656 159.105469 104.113281 C 160.269531 89.679688 176.359375 80.953125 189.5625 85.144531 " fill-opacity="1" fill-rule="nonzero"/><path fill="#000000" d="M 179.527344 161.617188 C 184.648438 145.964844 163.105469 131.75 150.074219 141.765625 C 140.234375 149.28125 138.480469 173.144531 155.097656 172.789062 C 164.46875 172.582031 175.117188 170.917969 179.527344 161.617188 Z M 143.582031 142.300781 C 157.777344 124.339844 191.238281 140.546875 183.566406 162.960938 C 183.527344 163.101562 183.464844 163.210938 183.398438 163.328125 C 183.386719 163.367188 183.367188 163.429688 183.359375 163.46875 C 180.695312 169.351562 175.59375 173.3125 169.378906 175.066406 C 163.800781 176.632812 154.898438 178.703125 149.289062 176.355469 C 136.136719 170.847656 135.441406 152.5625 143.582031 142.300781 " fill-opacity="1" fill-rule="nonzero"/><path fill="#000000" d="M 153.597656 105.359375 C 153.867188 105.617188 152.714844 107.152344 151.304688 109.828125 C 150.570312 111.144531 149.824219 112.800781 149.089844 114.652344 C 148.316406 116.503906 147.730469 118.585938 146.9375 120.894531 C 145.269531 125.441406 143.433594 129.214844 142.460938 132.105469 C 141.445312 134.859375 141.207031 136.871094 140.839844 136.820312 C 140.5625 136.800781 140.167969 134.898438 140.832031 131.660156 C 141.425781 128.53125 143.085938 124.4375 144.671875 120.101562 C 145.4375 117.929688 146.140625 115.671875 147.066406 113.789062 C 147.957031 111.878906 148.890625 110.214844 149.855469 108.925781 C 151.75 106.339844 153.390625 105.164062 153.597656 105.359375 " fill-opacity="1" fill-rule="nonzero"/><path fill="#000000" d="M 140.503906 196.195312 C 141.128906 198.394531 141.140625 199.871094 140.832031 199.941406 C 140.503906 200 139.917969 198.761719 138.925781 196.789062 C 138.429688 195.78125 137.84375 194.582031 137.296875 193.136719 C 137.167969 192.769531 137.050781 192.402344 136.921875 192.015625 C 136.800781 191.601562 136.703125 191.175781 136.59375 190.75 C 136.464844 190.292969 136.453125 189.925781 136.363281 189.5 C 136.335938 189.273438 136.304688 189.164062 136.285156 188.828125 L 136.265625 188.171875 C 136.007812 181.179688 136.859375 175.730469 137.464844 175.710938 C 138.179688 175.710938 138.410156 181.347656 138.648438 188.003906 L 138.65625 188.628906 C 138.65625 188.699219 138.707031 189.003906 138.726562 189.171875 C 138.785156 189.578125 138.816406 190.046875 138.90625 190.363281 C 138.976562 190.71875 139.042969 191.074219 139.113281 191.414062 C 139.214844 191.769531 139.3125 192.117188 139.390625 192.460938 C 139.800781 193.828125 140.207031 195.085938 140.503906 196.195312 " fill-opacity="1" fill-rule="nonzero"/><g clip-path="url(#a877c24d61)"><g clip-path="url(#292a321736)"><path fill="#ffffff" d="M 138.742188 76.597656 L 261.328125 76.597656 L 261.328125 228.394531 L 138.742188 228.394531 Z M 138.742188 76.597656 " fill-opacity="1" fill-rule="nonzero"/></g></g><g clip-path="url(#3747d66031)"><g clip-path="url(#c1edbc4755)"><path fill="#ffffff" d="M 227.9375 81.941406 L 255.503906 81.941406 L 255.503906 113.382812 L 227.9375 113.382812 Z M 227.9375 81.941406 " fill-opacity="1" fill-rule="nonzero"/></g></g><g clip-path="url(#8e9470e2bd)"><g clip-path="url(#595ad1e51f)"><path fill="#ffffff" d="M 225.226562 78.476562 L 255.804688 78.476562 L 255.804688 113.59375 L 225.226562 113.59375 Z M 225.226562 78.476562 " fill-opacity="1" fill-rule="nonzero"/></g></g><g clip-path="url(#d69ca63b00)"><g clip-path="url(#d49c61852c)"><path fill="#ffffff" d="M 225.375 78.175781 L 264.542969 78.175781 L 264.542969 132.792969 L 225.375 132.792969 Z M 225.375 78.175781 " fill-opacity="1" fill-rule="nonzero"/></g></g><g clip-path="url(#c1a0e817f6)"><g clip-path="url(#558c6194e3)"><path fill="#ffffff" d="M 218.296875 78.175781 L 259.570312 78.175781 L 259.570312 128.964844 L 218.296875 128.964844 Z M 218.296875 78.175781 " fill-opacity="1" fill-rule="nonzero"/></g></g><g clip-path="url(#d106dd93d0)"><g clip-path="url(#1244956a87)"><path fill="#ffffff" d="M 132.128906 146.113281 L 152.777344 146.113281 L 152.777344 166.601562 L 132.128906 166.601562 Z M 132.128906 146.113281 " fill-opacity="1" fill-rule="nonzero"/></g></g><g clip-path="url(#1139e2b9c2)"><g clip-path="url(#e5f608c622)"><path fill="#ffffff" d="M 130.171875 152.441406 L 147.492188 152.441406 L 147.492188 196.292969 L 130.171875 196.292969 Z M 130.171875 152.441406 " fill-opacity="1" fill-rule="nonzero"/></g></g><g clip-path="url(#371ef1252b)"><g clip-path="url(#3a5a19c593)"><path fill="#ffffff" d="M 129.566406 171.121094 L 155.175781 171.121094 L 155.175781 209.234375 L 129.566406 209.234375 Z M 129.566406 171.121094 " fill-opacity="1" fill-rule="nonzero"/></g></g><g clip-path="url(#fd637ffaae)"><g clip-path="url(#e0399f381b)"><path fill="#ffffff" d="M 135.894531 193.867188 L 193.910156 193.867188 L 193.910156 240.867188 L 135.894531 240.867188 Z M 135.894531 193.867188 " fill-opacity="1" fill-rule="nonzero"/></g></g><g clip-path="url(#4ead0392ff)"><g clip-path="url(#c7415c3563)"><path fill="#ffffff" d="M 242.246094 132.105469 L 272.375 132.105469 L 272.375 162.230469 L 242.246094 162.230469 Z M 242.246094 132.105469 " fill-opacity="1" fill-rule="nonzero"/></g></g><g clip-path="url(#893c63a5b7)"><g clip-path="url(#fbdfacfed0)"><path fill="#ffffff" d="M 238.78125 130.144531 L 271.3125 130.144531 L 271.3125 160.875 L 238.78125 160.875 Z M 238.78125 130.144531 " fill-opacity="1" fill-rule="nonzero"/></g></g><g clip-path="url(#24db8957c7)"><g clip-path="url(#d68d621f33)"><path fill="#ffffff" d="M 240.441406 125.175781 L 272.375 125.175781 L 272.375 164.097656 L 240.441406 164.097656 Z M 240.441406 125.175781 " fill-opacity="1" fill-rule="nonzero"/></g></g><g clip-path="url(#d535420678)"><g clip-path="url(#dcdc26fc68)"><path fill="#ffffff" d="M 240.441406 134.515625 L 270.378906 134.515625 L 270.378906 163.4375 L 240.441406 163.4375 Z M 240.441406 134.515625 " fill-opacity="1" fill-rule="nonzero"/></g></g><g clip-path="url(#dc6314e87c)"><g clip-path="url(#ed16e4901d)"><path fill="#ffffff" d="M 240.589844 132.855469 L 270.566406 132.855469 L 270.566406 162.953125 L 240.589844 162.953125 Z M 240.589844 132.855469 " fill-opacity="1" fill-rule="nonzero"/></g></g><g clip-path="url(#63ed9895c3)"><g clip-path="url(#d46adc96a3)"><path fill="#ffffff" d="M 238.78125 131.5 L 273.28125 131.5 L 273.28125 180.011719 L 238.78125 180.011719 Z M 238.78125 131.5 " fill-opacity="1" fill-rule="nonzero"/></g></g><g clip-path="url(#ffbc9d9ac2)"><g clip-path="url(#f8e89fc203)"><path fill="#ffffff" d="M 243.90625 136.472656 L 273.882812 136.472656 L 273.882812 166.566406 L 243.90625 166.566406 Z M 243.90625 136.472656 " fill-opacity="1" fill-rule="nonzero"/></g></g><g clip-path="url(#afe308dd93)"><g clip-path="url(#4706e45428)"><path fill="#ffffff" d="M 243.90625 139.9375 L 274.03125 139.9375 L 274.03125 170.066406 L 243.90625 170.066406 Z M 243.90625 139.9375 " fill-opacity="1" fill-rule="nonzero"/></g></g><g clip-path="url(#6ba6e7f61f)"><g clip-path="url(#efad0ecd14)"><path fill="#ffffff" d="M 244.207031 135.570312 L 274.148438 135.570312 L 274.148438 165.394531 L 244.207031 165.394531 Z M 244.207031 135.570312 " fill-opacity="1" fill-rule="nonzero"/></g></g><g clip-path="url(#50640eddc8)"><g clip-path="url(#ecb5fc62b8)"><path fill="#ffffff" d="M 241.496094 145.8125 L 271.621094 145.8125 L 271.621094 175.941406 L 241.496094 175.941406 Z M 241.496094 145.8125 " fill-opacity="1" fill-rule="nonzero"/></g></g><g clip-path="url(#c061fc66c2)"><g clip-path="url(#cbe3074948)"><path fill="#ffffff" d="M 240.890625 132.105469 L 273.28125 132.105469 L 273.28125 171.070312 L 240.890625 171.070312 Z M 240.890625 132.105469 " fill-opacity="1" fill-rule="nonzero"/></g></g><g clip-path="url(#9c5b8c01c8)"><g clip-path="url(#5d9430ea20)"><path fill="#ffffff" d="M 247.972656 137.074219 L 277.914062 137.074219 L 277.914062 166.902344 L 247.972656 166.902344 Z M 247.972656 137.074219 " fill-opacity="1" fill-rule="nonzero"/></g></g><g clip-path="url(#f6460e1810)"><g clip-path="url(#41a8e32457)"><path fill="#ffffff" d="M 247.371094 127.285156 L 277.496094 127.285156 L 277.496094 157.410156 L 247.371094 157.410156 Z M 247.371094 127.285156 " fill-opacity="1" fill-rule="nonzero"/></g></g><g clip-path="url(#b9a5461eea)"><g clip-path="url(#9afae0b145)"><path fill="#ffffff" d="M 248.574219 113.574219 L 278.550781 113.574219 L 278.550781 143.554688 L 248.574219 143.554688 Z M 248.574219 113.574219 " fill-opacity="1" fill-rule="nonzero"/></g></g><g clip-path="url(#b14cea5b2f)"><g clip-path="url(#78de10ebd2)"><path fill="#ffffff" d="M 200.820312 160.574219 L 271.320312 160.574219 L 271.320312 237.132812 L 200.820312 237.132812 Z M 200.820312 160.574219 " fill-opacity="1" fill-rule="nonzero"/></g></g><g clip-path="url(#2f8eaaed30)"><g clip-path="url(#570b3c3bc2)"><path fill="#ffffff" d="M 246.765625 145.511719 L 276.894531 145.511719 L 276.894531 175.757812 L 246.765625 175.757812 Z M 246.765625 145.511719 " fill-opacity="1" fill-rule="nonzero"/></g></g><g clip-path="url(#8e44fbe824)"><g clip-path="url(#342a3bc738)"><path fill="#ffffff" d="M 247.21875 120.503906 L 277.347656 120.503906 L 277.347656 150.632812 L 247.21875 150.632812 Z M 247.21875 120.503906 " fill-opacity="1" fill-rule="nonzero"/></g></g><g clip-path="url(#914d71d072)"><g clip-path="url(#b08c5818b1)"><path fill="#ffffff" d="M 236.824219 79.832031 L 266.765625 79.832031 L 266.765625 108.753906 L 236.824219 108.753906 Z M 236.824219 79.832031 " fill-opacity="1" fill-rule="nonzero"/></g></g><g clip-path="url(#c7f25e27c4)"><g clip-path="url(#7ce21bd4ea)"><path fill="#ffffff" d="M 236.824219 79.832031 L 277.496094 79.832031 L 277.496094 139.886719 L 236.824219 139.886719 Z M 236.824219 79.832031 " fill-opacity="1" fill-rule="nonzero"/></g></g><g clip-path="url(#7de5722624)"><g clip-path="url(#7f1fa35952)"><path fill="#ffffff" d="M 205.339844 75.011719 L 269.167969 75.011719 L 269.167969 133.160156 L 205.339844 133.160156 Z M 205.339844 75.011719 " fill-opacity="1" fill-rule="nonzero"/></g></g><g clip-path="url(#77c7660a06)"><g clip-path="url(#3b85ca1e25)"><path fill="#ffffff" d="M 193.589844 57.988281 L 251.457031 57.988281 L 251.457031 91.730469 L 193.589844 91.730469 Z M 193.589844 57.988281 " fill-opacity="1" fill-rule="nonzero"/></g></g><g clip-path="url(#640df1f8ff)"><g clip-path="url(#5ba7b52eea)"><path fill="#ffffff" d="M 166.625 53.921875 L 241.5625 53.921875 L 241.5625 96.550781 L 166.625 96.550781 Z M 166.625 53.921875 " fill-opacity="1" fill-rule="nonzero"/></g></g><g clip-path="url(#f5ac717dd5)"><g clip-path="url(#47af07aa64)"><path fill="#ffffff" d="M 144.179688 67.027344 L 195.699219 67.027344 L 195.699219 126.195312 L 144.179688 126.195312 Z M 144.179688 67.027344 " fill-opacity="1" fill-rule="nonzero"/></g></g><g clip-path="url(#74f57faa89)"><g clip-path="url(#64343379e8)"><path fill="#ffffff" d="M 127.609375 95.5 L 171.144531 95.5 L 171.144531 191.242188 L 127.609375 191.242188 Z M 127.609375 95.5 " fill-opacity="1" fill-rule="nonzero"/></g></g><g clip-path="url(#28360e4981)"><g clip-path="url(#ea25ad353f)"><path fill="#ffffff" d="M 148.246094 197.933594 L 211.054688 197.933594 L 211.054688 245.085938 L 148.246094 245.085938 Z M 148.246094 197.933594 " fill-opacity="1" fill-rule="nonzero"/></g></g><g clip-path="url(#d974523080)"><g clip-path="url(#bd331e31ca)"><path fill="#ffffff" d="M 139.8125 186.484375 L 190.277344 186.484375 L 190.277344 239.90625 L 139.8125 239.90625 Z M 139.8125 186.484375 " fill-opacity="1" fill-rule="nonzero"/></g></g><g clip-path="url(#64c1f8112e)"><g clip-path="url(#4788691b68)"><path fill="#ffffff" d="M 143.878906 200.796875 L 180.183594 200.796875 L 180.183594 238.660156 L 143.878906 238.660156 Z M 143.878906 200.796875 " fill-opacity="1" fill-rule="nonzero"/></g></g><g clip-path="url(#163e32ae2b)"><g clip-path="url(#a39bd16979)"><path fill="#ffffff" d="M 127.457031 174.132812 L 157.585938 174.132812 L 157.585938 204.261719 L 127.457031 204.261719 Z M 127.457031 174.132812 " fill-opacity="1" fill-rule="nonzero"/></g></g><g clip-path="url(#28d89550e8)"><g clip-path="url(#7256db6038)"><path fill="#ffffff" d="M 127.761719 181.214844 L 157.886719 181.214844 L 157.886719 211.339844 L 127.761719 211.339844 Z M 127.761719 181.214844 " fill-opacity="1" fill-rule="nonzero"/></g></g><g clip-path="url(#3ca366c8e7)"><g clip-path="url(#1fd267fa21)"><path fill="#ffffff" d="M 125.347656 168.859375 L 155.175781 168.859375 L 155.175781 198.6875 L 125.347656 198.6875 Z M 125.347656 168.859375 " fill-opacity="1" fill-rule="nonzero"/></g></g></svg>